<svg xmlns="http://www.w3.org/2000/svg" xmlns:xlink="http://www.w3.org/1999/xlink" zoomAndPan="magnify" preserveAspectRatio="xMidYMid meet" version="1.0" viewBox="37.06 161.94 300.89 80.88"><defs><g/></defs><g fill="rgb(100%, 100%, 100%)" fill-opacity="1"><g transform="translate(33.767295, 208.799104)"><g><path d="M 50.15625 0 L 47.078125 0 C 46.660156 0 46.175781 -0.125 45.625 -0.375 C 44.84375 -0.75 44.039062 -1.347656 43.21875 -2.171875 C 42.34375 -3.066406 41.742188 -3.925781 41.421875 -4.75 C 38.722656 -3.207031 36.878906 -2.171875 35.890625 -1.640625 C 32.609375 0.078125 29.519531 1.410156 26.625 2.359375 C 22.65625 3.679688 19 4.34375 15.65625 4.34375 C 14.226562 4.34375 12.921875 4.25 11.734375 4.0625 C 10.554688 3.875 9.351562 3.554688 8.125 3.109375 C 6.53125 2.503906 5.328125 1.648438 4.515625 0.546875 C 3.703125 -0.546875 3.296875 -1.925781 3.296875 -3.59375 C 3.296875 -4.84375 3.519531 -6.1875 3.96875 -7.625 C 4.414062 -9.0625 5.128906 -10.691406 6.109375 -12.515625 L 6.96875 -12.140625 C 6.769531 -11.210938 6.609375 -10.382812 6.484375 -9.65625 C 6.359375 -8.9375 6.296875 -8.238281 6.296875 -7.5625 C 6.296875 -6.414062 6.535156 -5.375 7.015625 -4.4375 C 7.503906 -3.5 8.363281 -2.617188 9.59375 -1.796875 C 10.238281 -1.492188 11.015625 -1.257812 11.921875 -1.09375 C 12.835938 -0.9375 13.804688 -0.859375 14.828125 -0.859375 C 17.628906 -0.859375 21.050781 -1.410156 25.09375 -2.515625 C 27.84375 -3.265625 30.898438 -4.285156 34.265625 -5.578125 L 38.25 -7.234375 C 40.019531 -8.234375 40.90625 -9.21875 40.90625 -10.1875 L 40.90625 -40.078125 L 44.765625 -44.71875 L 44.765625 -10.1875 C 44.765625 -9.164062 44.984375 -8.28125 45.421875 -7.53125 C 45.859375 -6.78125 46.5625 -6.179688 47.53125 -5.734375 C 48.007812 -5.554688 48.40625 -5.4375 48.71875 -5.375 C 49.03125 -5.3125 49.421875 -5.28125 49.890625 -5.28125 L 50.15625 -5.28125 Z M 28.390625 -20.046875 C 28.046875 -19.515625 27.507812 -19.140625 26.78125 -18.921875 C 25.9375 -18.710938 25.300781 -18.5625 24.875 -18.46875 C 26.875 -18.46875 28.332031 -18.21875 29.25 -17.71875 C 30.070312 -17.269531 30.484375 -16.65625 30.484375 -15.875 C 30.484375 -15.15625 30.160156 -14.320312 29.515625 -13.375 C 29.015625 -12.625 28.34375 -11.847656 27.5 -11.046875 C 26.539062 -10.398438 25.3125 -9.890625 23.8125 -9.515625 C 22.320312 -9.140625 20.753906 -8.953125 19.109375 -8.953125 L 19.109375 -9.890625 L 23.828125 -12.359375 C 24.453125 -12.734375 24.988281 -13.046875 25.4375 -13.296875 C 25.632812 -13.398438 25.894531 -13.523438 26.21875 -13.671875 C 25.914062 -13.617188 25.578125 -13.566406 25.203125 -13.515625 C 24.828125 -13.472656 24.59375 -13.453125 24.5 -13.453125 C 23.550781 -13.453125 22.789062 -13.640625 22.21875 -14.015625 C 21.4375 -14.484375 21.046875 -15.269531 21.046875 -16.375 C 21.597656 -18.414062 22.695312 -20.382812 24.34375 -22.28125 C 25.894531 -24.0625 27.15625 -24.953125 28.125 -24.953125 C 28.550781 -24.953125 28.859375 -24.828125 29.046875 -24.578125 C 29.234375 -24.328125 29.328125 -23.972656 29.328125 -23.515625 C 29.328125 -23.046875 29.226562 -22.472656 29.03125 -21.796875 C 28.925781 -21.453125 28.710938 -20.867188 28.390625 -20.046875 Z M 28.390625 -20.046875 "/></g></g></g><g fill="rgb(100%, 100%, 100%)" fill-opacity="1"><g transform="translate(83.91684, 208.799104)"><g><path d="M 44.421875 0 L 42.171875 0 C 41.222656 0 40.273438 -0.195312 39.328125 -0.59375 C 38.148438 -1.070312 37.226562 -1.773438 36.5625 -2.703125 C 35.28125 -1.722656 34.378906 -1.097656 33.859375 -0.828125 C 32.859375 -0.273438 31.8125 0 30.71875 0 C 29.84375 0 28.894531 -0.535156 27.875 -1.609375 C 27.539062 -1.960938 27.125 -2.5 26.625 -3.21875 C 25.457031 -2.25 24.289062 -1.492188 23.125 -0.953125 C 21.96875 -0.421875 20.914062 -0.101562 19.96875 0 C 18.914062 0.101562 17.726562 -0.492188 16.40625 -1.796875 C 15.957031 -2.242188 15.382812 -2.929688 14.6875 -3.859375 C 13.507812 -2.984375 12.035156 -2.207031 10.265625 -1.53125 C 9.066406 -1.082031 7.742188 -0.695312 6.296875 -0.375 C 5.242188 -0.125 4.65625 0 4.53125 0 L 0 0 L 0 -5.28125 L 0.484375 -5.28125 C 1.179688 -5.28125 1.84375 -5.289062 2.46875 -5.3125 C 4.320312 -5.46875 5.269531 -5.546875 5.3125 -5.546875 C 6.757812 -5.546875 8.75 -5.941406 11.28125 -6.734375 C 13.050781 -7.316406 15.046875 -8.082031 17.265625 -9.03125 L 19.96875 -10.21875 C 19.488281 -9.675781 19.125 -9.242188 18.875 -8.921875 C 18.15625 -7.921875 17.796875 -7.054688 17.796875 -6.328125 C 17.796875 -6.003906 17.84375 -5.75 17.9375 -5.5625 C 18.039062 -5.375 18.238281 -5.179688 18.53125 -4.984375 C 18.832031 -4.785156 19.160156 -4.632812 19.515625 -4.53125 C 19.867188 -4.425781 20.28125 -4.375 20.75 -4.375 C 22.050781 -4.375 23.550781 -4.863281 25.25 -5.84375 C 26.519531 -6.5625 27.816406 -7.484375 29.140625 -8.609375 L 30.796875 -10.15625 C 31.191406 -10.050781 31.390625 -9.773438 31.390625 -9.328125 C 31.390625 -9.003906 31.226562 -8.410156 30.90625 -7.546875 C 30.582031 -6.679688 30.421875 -6.0625 30.421875 -5.6875 C 30.421875 -5.363281 30.519531 -5.113281 30.71875 -4.9375 C 30.914062 -4.769531 31.25 -4.6875 31.71875 -4.6875 C 32.300781 -4.6875 33.175781 -4.847656 34.34375 -5.171875 C 35 -5.367188 36.363281 -6.316406 38.4375 -8.015625 C 39.101562 -8.566406 40.078125 -9.390625 41.359375 -10.484375 L 42.140625 -9.921875 C 41.890625 -9.472656 41.710938 -9.113281 41.609375 -8.84375 C 41.234375 -7.96875 41.046875 -7.28125 41.046875 -6.78125 C 41.046875 -6.300781 41.195312 -5.953125 41.5 -5.734375 C 41.75 -5.609375 42.0625 -5.5 42.4375 -5.40625 C 42.8125 -5.320312 43.300781 -5.28125 43.90625 -5.28125 L 44.421875 -5.28125 Z M 44.421875 0 "/></g></g></g><g fill="rgb(100%, 100%, 100%)" fill-opacity="1"><g transform="translate(128.298628, 208.799104)"><g><path d="M 21.09375 -26.5625 L 18.578125 -22.28125 L 13.328125 -26.328125 L 15.84375 -30.609375 Z M 22.703125 0 L 19.171875 0 C 18.773438 0 18.101562 -0.210938 17.15625 -0.640625 C 16.03125 -1.109375 14.96875 -1.734375 13.96875 -2.515625 C 12.894531 -1.835938 11.1875 -1.210938 8.84375 -0.640625 C 8.09375 -0.460938 7.03125 -0.25 5.65625 0 L 0 0 L 0 -5.28125 L 1.234375 -5.28125 L 5.625 -5.3125 C 5.96875 -5.3125 6.238281 -5.363281 6.4375 -5.46875 C 9.039062 -5.789062 10.34375 -6.789062 10.34375 -8.46875 C 10.34375 -10.1875 11.253906 -12.046875 13.078125 -14.046875 C 14.898438 -16.046875 16.519531 -17.046875 17.9375 -17.046875 C 18.96875 -17.046875 19.894531 -16.550781 20.71875 -15.5625 C 21.539062 -14.570312 21.953125 -13.332031 21.953125 -11.84375 C 21.953125 -10.8125 21.734375 -9.734375 21.296875 -8.609375 C 20.859375 -7.484375 20.273438 -6.507812 19.546875 -5.6875 L 21.84375 -5.28125 L 22.703125 -5.28125 Z M 17.859375 -9.59375 C 17.941406 -9.8125 17.984375 -10.035156 17.984375 -10.265625 C 17.984375 -10.960938 17.769531 -11.382812 17.34375 -11.53125 C 17.019531 -11.6875 16.679688 -11.640625 16.328125 -11.390625 C 15.984375 -11.140625 15.726562 -10.828125 15.5625 -10.453125 C 15.394531 -10.078125 15.3125 -9.710938 15.3125 -9.359375 C 15.3125 -8.691406 15.523438 -8.269531 15.953125 -8.09375 C 16.109375 -8.039062 16.222656 -8.015625 16.296875 -8.015625 C 17.066406 -8.015625 17.585938 -8.539062 17.859375 -9.59375 Z M 17.859375 -9.59375 "/></g></g></g><g fill="rgb(100%, 100%, 100%)" fill-opacity="1"><g transform="translate(150.99514, 208.799104)"><g><path d="M 11.53125 -26.515625 L 9.0625 -22.28125 L 3.828125 -26.296875 L 6.328125 -30.609375 Z M 11.203125 -2.578125 C 10.347656 -1.753906 9.460938 -1.117188 8.546875 -0.671875 C 7.640625 -0.222656 6.648438 0 5.578125 0 L 0 0 L 0 -5.28125 L 8.28125 -5.28125 C 8.601562 -5.300781 8.890625 -5.351562 9.140625 -5.4375 C 9.390625 -5.53125 9.6875 -5.664062 10.03125 -5.84375 L 7.484375 -11.046875 L 10.375 -16.8125 C 11.25 -15.664062 11.960938 -14.378906 12.515625 -12.953125 C 13.140625 -11.335938 13.453125 -9.789062 13.453125 -8.3125 C 13.453125 -7.21875 13.273438 -6.195312 12.921875 -5.25 C 12.566406 -4.300781 11.992188 -3.410156 11.203125 -2.578125 Z M 11.203125 -2.578125 "/></g></g></g><g fill="rgb(100%, 100%, 100%)" fill-opacity="1"><g transform="translate(167.736629, 208.799104)"><g/></g></g><g fill="rgb(100%, 100%, 100%)" fill-opacity="1"><g transform="translate(184.590474, 208.799104)"><g><path d="M 39.921875 0 L 35.765625 0 C 35.816406 0.25 35.84375 0.859375 35.84375 1.828125 C 35.84375 3.484375 34.742188 5.519531 32.546875 7.9375 C 30.828125 9.832031 28.957031 11.457031 26.9375 12.8125 C 23.539062 15.257812 20.453125 17.421875 17.671875 19.296875 C 13.628906 22.015625 9.984375 24.257812 6.734375 26.03125 C 2.617188 28.300781 -0.910156 29.875 -3.859375 30.75 L -19.78125 34.015625 C -13.5625 31.191406 -6.707031 27.753906 0.78125 23.703125 C 7.945312 19.835938 14.316406 16.207031 19.890625 12.8125 C 20.660156 12.332031 21.921875 11.40625 23.671875 10.03125 C 25.722656 8.4375 27.445312 6.941406 28.84375 5.546875 C 30.5625 3.816406 31.421875 2.59375 31.421875 1.875 C 31.023438 0.351562 30.414062 -1.082031 29.59375 -2.4375 C 29.34375 -2.882812 28.953125 -3.445312 28.421875 -4.125 L 31.28125 -11.28125 L 33.703125 -6.921875 C 34.253906 -6.398438 35 -5.992188 35.9375 -5.703125 C 36.875 -5.421875 38.015625 -5.28125 39.359375 -5.28125 L 39.921875 -5.28125 Z M 39.921875 0 "/></g></g></g><g fill="rgb(100%, 100%, 100%)" fill-opacity="1"><g transform="translate(224.51535, 208.799104)"><g><path d="M 16.96875 0 L 13.75 0 C 12.945312 0 12.175781 -0.226562 11.4375 -0.6875 C 10.707031 -1.15625 9.867188 -1.972656 8.921875 -3.140625 C 7.835938 -2.222656 6.875 -1.488281 6.03125 -0.9375 C 5.007812 -0.3125 4.222656 0 3.671875 0 L 0 0 L 0 -5.28125 L 0.53125 -5.28125 C 2.144531 -5.28125 3.523438 -5.445312 4.671875 -5.78125 C 5.828125 -6.125 6.691406 -6.65625 7.265625 -7.375 C 8.117188 -8.40625 9.207031 -9.289062 10.53125 -10.03125 C 10.976562 -10.28125 11.5625 -10.554688 12.28125 -10.859375 C 12.226562 -10.679688 12.191406 -10.476562 12.171875 -10.25 C 12.148438 -10.03125 12.140625 -9.734375 12.140625 -9.359375 C 12.140625 -7.910156 12.472656 -6.835938 13.140625 -6.140625 C 13.722656 -5.566406 14.488281 -5.28125 15.4375 -5.28125 L 16.96875 -5.28125 Z M 12.921875 7.375 L 10.453125 11.6875 L 5.171875 7.609375 L 7.671875 3.328125 Z M 12.921875 7.375 "/></g></g></g><g fill="rgb(100%, 100%, 100%)" fill-opacity="1"><g transform="translate(241.444105, 208.799104)"><g><path d="M 41.65625 -15.359375 C 43.320312 -13.554688 44.15625 -11.84375 44.15625 -10.21875 C 44.15625 -8.875 43.539062 -7.5625 42.3125 -6.28125 C 41.09375 -5.007812 39.195312 -3.738281 36.625 -2.46875 C 35.175781 -1.75 33.378906 -1.175781 31.234375 -0.75 C 29.660156 -0.445312 27.800781 -0.21875 25.65625 -0.0625 C 23.507812 0.0820312 21.613281 0.15625 19.96875 0.15625 C 18.84375 0.15625 18.046875 0.15625 17.578125 0.15625 C 17.117188 0.15625 16.691406 0.128906 16.296875 0.078125 C 15.921875 0.847656 15.617188 1.410156 15.390625 1.765625 C 14.691406 2.910156 14.117188 3.445312 13.671875 3.375 C 13.191406 3.269531 12.953125 2.84375 12.953125 2.09375 C 12.953125 1.5 13.117188 0.75 13.453125 -0.15625 C 13.472656 -0.300781 13.546875 -0.488281 13.671875 -0.71875 C 13.671875 -0.757812 13.195312 -1.109375 12.25 -1.765625 C 11.945312 -1.984375 11.457031 -2.316406 10.78125 -2.765625 C 10.007812 -2.140625 9.375 -1.679688 8.875 -1.390625 C 7.40625 -0.460938 6.15625 0 5.125 0 L 0 0 L 0 -5.28125 L 0.484375 -5.28125 C 4.078125 -5.28125 6.863281 -5.851562 8.84375 -7 L 14.15625 -10.671875 L 14.15625 -9.359375 C 14.15625 -8.441406 14.347656 -7.492188 14.734375 -6.515625 C 15.117188 -5.546875 15.601562 -5.0625 16.1875 -5.0625 L 19.921875 -9.59375 C 22.421875 -12.007812 25.117188 -13.945312 28.015625 -15.40625 C 30.910156 -16.875 33.554688 -17.609375 35.953125 -17.609375 C 37.128906 -17.609375 38.191406 -17.425781 39.140625 -17.0625 C 40.085938 -16.695312 40.925781 -16.128906 41.65625 -15.359375 Z M 40.078125 -8.734375 C 38.898438 -10.078125 37.804688 -11.039062 36.796875 -11.625 C 35.785156 -12.21875 34.695312 -12.515625 33.53125 -12.515625 C 31.820312 -12.515625 30 -11.953125 28.0625 -10.828125 C 25.832031 -9.554688 23.367188 -7.53125 20.671875 -4.75 C 20.921875 -4.75 21.320312 -4.738281 21.875 -4.71875 C 22.425781 -4.695312 22.890625 -4.6875 23.265625 -4.6875 C 24.710938 -4.6875 26.125 -4.757812 27.5 -4.90625 C 29.363281 -5.132812 31.035156 -5.472656 32.515625 -5.921875 C 34.585938 -6.566406 36 -7.015625 36.75 -7.265625 C 38.164062 -7.765625 39.273438 -8.253906 40.078125 -8.734375 Z M 40.078125 -8.734375 "/></g></g></g><g fill="rgb(100%, 100%, 100%)" fill-opacity="1"><g transform="translate(288.897037, 208.799104)"><g><path d="M 6.515625 1.046875 C 7.160156 -0.453125 7.492188 -3.53125 7.515625 -8.1875 C 7.546875 -12.84375 7.351562 -17.628906 6.9375 -22.546875 C 6.53125 -27.460938 6.078125 -31.960938 5.578125 -36.046875 C 5.078125 -40.128906 4.691406 -42.519531 4.421875 -43.21875 C 4.941406 -43.769531 5.835938 -44.984375 7.109375 -46.859375 C 9.109375 -39.835938 10.285156 -35.78125 10.640625 -34.6875 C 10.484375 -34.957031 10.253906 -35.410156 9.953125 -36.046875 C 9.660156 -36.679688 9.421875 -37.179688 9.234375 -37.546875 C 9.046875 -37.910156 8.804688 -38.25 8.515625 -38.5625 C 8.234375 -38.875 7.96875 -39.019531 7.71875 -39 C 7.5625 -38.96875 7.582031 -38.140625 7.78125 -36.515625 C 7.988281 -34.890625 8.28125 -32.828125 8.65625 -30.328125 C 9.03125 -27.835938 9.34375 -25.035156 9.59375 -21.921875 C 9.84375 -18.816406 9.976562 -15.816406 10 -12.921875 C 10.019531 -10.023438 9.742188 -7.289062 9.171875 -4.71875 C 8.597656 -2.144531 7.710938 -0.222656 6.515625 1.046875 Z M 6.515625 1.046875 "/></g></g></g><g fill="rgb(100%, 100%, 100%)" fill-opacity="1"><g transform="translate(302.754634, 208.799104)"><g><path d="M 34.3125 3.703125 C 33.332031 5.503906 31.910156 7.304688 30.046875 9.109375 C 28.597656 10.523438 26.398438 12.347656 23.453125 14.578125 C 22.828125 15.046875 19.90625 17.203125 14.6875 21.046875 C 12.789062 22.492188 9.65625 24.316406 5.28125 26.515625 C 1.3125 28.515625 -2 30.003906 -4.65625 30.984375 C -7.320312 31.972656 -9.953125 32.71875 -12.546875 33.21875 C -14.421875 33.570312 -16.082031 33.75 -17.53125 33.75 C -18.25 33.75 -18.734375 33.726562 -18.984375 33.6875 C -19.234375 33.65625 -19.421875 33.613281 -19.546875 33.5625 L -4.421875 26.328125 C -4.367188 26.328125 -2.945312 25.492188 -0.15625 23.828125 C 3.113281 21.898438 6.613281 19.789062 10.34375 17.5 C 14.988281 14.625 19.296875 11.863281 23.265625 9.21875 C 24.210938 8.59375 25.320312 7.742188 26.59375 6.671875 L 29.78125 3.9375 C 31.050781 2.863281 32.050781 2.078125 32.78125 1.578125 C 32.675781 1.472656 32.523438 1.242188 32.328125 0.890625 C 32.128906 0.546875 31.863281 0.300781 31.53125 0.15625 C 31.457031 0.125 31.320312 0.109375 31.125 0.109375 C 30.875 0.109375 30.523438 0.132812 30.078125 0.1875 C 28.898438 0.363281 28.085938 0.453125 27.640625 0.453125 C 26.710938 0.453125 25.890625 0.300781 25.171875 0 C 24.242188 -0.394531 23.46875 -1.054688 22.84375 -1.984375 C 22.519531 -2.460938 22.257812 -2.9375 22.0625 -3.40625 C 21.707031 -4.175781 21.53125 -4.925781 21.53125 -5.65625 C 21.53125 -6.375 21.679688 -7.070312 21.984375 -7.75 C 22.285156 -8.425781 22.796875 -9.085938 23.515625 -9.734375 C 24.640625 -10.765625 25.90625 -11.28125 27.3125 -11.28125 C 28.957031 -11.28125 30.691406 -10.515625 32.515625 -8.984375 C 33.484375 -8.210938 34.191406 -7.101562 34.640625 -5.65625 C 35.015625 -4.457031 35.203125 -3.070312 35.203125 -1.5 C 35.203125 -0.394531 35.109375 0.644531 34.921875 1.625 C 34.734375 2.613281 34.53125 3.304688 34.3125 3.703125 Z M 30.265625 -4.9375 C 30.285156 -4.988281 30.296875 -5.101562 30.296875 -5.28125 C 30.296875 -5.851562 30.023438 -6.382812 29.484375 -6.875 C 28.953125 -7.363281 28.390625 -7.609375 27.796875 -7.609375 C 27.171875 -7.609375 26.625 -7.460938 26.15625 -7.171875 C 25.695312 -6.878906 25.421875 -6.523438 25.328125 -6.109375 C 25.222656 -5.703125 25.3125 -5.285156 25.59375 -4.859375 C 25.882812 -4.441406 26.289062 -4.09375 26.8125 -3.8125 C 27.34375 -3.539062 27.867188 -3.40625 28.390625 -3.40625 C 28.835938 -3.40625 29.222656 -3.53125 29.546875 -3.78125 C 29.878906 -4.03125 30.117188 -4.414062 30.265625 -4.9375 Z M 30.265625 -4.9375 "/></g></g></g></svg>